<mxfile host="app.diagrams.net" agent="Mozilla/5.0 (Macintosh; Intel Mac OS X 10_15_7) AppleWebKit/537.36 (KHTML, like Gecko) Chrome/133.0.0.0 Safari/537.36 Edg/133.0.0.0" version="26.1.1">
  <diagram name="第 1 页" id="SBixWZ4FR2Yc1WJguGUG">
    <mxGraphModel dx="2066" dy="1149" grid="1" gridSize="10" guides="1" tooltips="1" connect="1" arrows="1" fold="1" page="1" pageScale="1" pageWidth="827" pageHeight="1169" math="0" shadow="0">
      <root>
        <mxCell id="0" />
        <mxCell id="1" parent="0" />
        <mxCell id="Y_uL8YW0Y6g2B9xkBIYC-26" value="" style="edgeStyle=orthogonalEdgeStyle;rounded=0;orthogonalLoop=1;jettySize=auto;html=1;" edge="1" parent="1" source="Y_uL8YW0Y6g2B9xkBIYC-1" target="Y_uL8YW0Y6g2B9xkBIYC-2">
          <mxGeometry relative="1" as="geometry" />
        </mxCell>
        <mxCell id="Y_uL8YW0Y6g2B9xkBIYC-1" value="&lt;font style=&quot;font-size: 14px;&quot;&gt;main.py&lt;/font&gt;" style="rounded=0;whiteSpace=wrap;html=1;fillColor=#FF9999;" vertex="1" parent="1">
          <mxGeometry x="525" y="120" width="100" height="50" as="geometry" />
        </mxCell>
        <mxCell id="Y_uL8YW0Y6g2B9xkBIYC-27" value="" style="edgeStyle=orthogonalEdgeStyle;rounded=0;orthogonalLoop=1;jettySize=auto;html=1;" edge="1" parent="1" source="Y_uL8YW0Y6g2B9xkBIYC-2" target="Y_uL8YW0Y6g2B9xkBIYC-3">
          <mxGeometry relative="1" as="geometry" />
        </mxCell>
        <mxCell id="Y_uL8YW0Y6g2B9xkBIYC-2" value="&lt;span style=&quot;font-size: 14px;&quot;&gt;启动代理&lt;/span&gt;" style="rounded=0;whiteSpace=wrap;html=1;" vertex="1" parent="1">
          <mxGeometry x="510" y="210" width="130" height="40" as="geometry" />
        </mxCell>
        <mxCell id="Y_uL8YW0Y6g2B9xkBIYC-3" value="&lt;span style=&quot;font-size: 14px;&quot;&gt;循环开始&lt;/span&gt;" style="rounded=0;whiteSpace=wrap;html=1;" vertex="1" parent="1">
          <mxGeometry x="510" y="300" width="130" height="40" as="geometry" />
        </mxCell>
        <mxCell id="Y_uL8YW0Y6g2B9xkBIYC-29" style="edgeStyle=orthogonalEdgeStyle;rounded=0;orthogonalLoop=1;jettySize=auto;html=1;exitX=0.5;exitY=1;exitDx=0;exitDy=0;entryX=0.5;entryY=0;entryDx=0;entryDy=0;curved=1;" edge="1" parent="1" source="Y_uL8YW0Y6g2B9xkBIYC-4" target="Y_uL8YW0Y6g2B9xkBIYC-5">
          <mxGeometry relative="1" as="geometry" />
        </mxCell>
        <mxCell id="Y_uL8YW0Y6g2B9xkBIYC-30" style="edgeStyle=orthogonalEdgeStyle;rounded=0;orthogonalLoop=1;jettySize=auto;html=1;entryX=0.5;entryY=0;entryDx=0;entryDy=0;exitX=0.5;exitY=1;exitDx=0;exitDy=0;curved=1;" edge="1" parent="1" source="Y_uL8YW0Y6g2B9xkBIYC-4" target="Y_uL8YW0Y6g2B9xkBIYC-6">
          <mxGeometry relative="1" as="geometry" />
        </mxCell>
        <mxCell id="Y_uL8YW0Y6g2B9xkBIYC-31" style="edgeStyle=orthogonalEdgeStyle;rounded=0;orthogonalLoop=1;jettySize=auto;html=1;entryX=0.5;entryY=0;entryDx=0;entryDy=0;curved=1;" edge="1" parent="1" source="Y_uL8YW0Y6g2B9xkBIYC-4" target="Y_uL8YW0Y6g2B9xkBIYC-7">
          <mxGeometry relative="1" as="geometry" />
        </mxCell>
        <mxCell id="Y_uL8YW0Y6g2B9xkBIYC-32" style="edgeStyle=orthogonalEdgeStyle;rounded=0;orthogonalLoop=1;jettySize=auto;html=1;entryX=0.5;entryY=0;entryDx=0;entryDy=0;exitX=0.5;exitY=1;exitDx=0;exitDy=0;curved=1;" edge="1" parent="1" source="Y_uL8YW0Y6g2B9xkBIYC-4" target="Y_uL8YW0Y6g2B9xkBIYC-8">
          <mxGeometry relative="1" as="geometry" />
        </mxCell>
        <mxCell id="Y_uL8YW0Y6g2B9xkBIYC-4" value="&lt;span style=&quot;font-size: 14px;&quot;&gt;think阶段&lt;/span&gt;" style="rounded=0;whiteSpace=wrap;html=1;fillColor=#FF9999;" vertex="1" parent="1">
          <mxGeometry x="370" y="400" width="130" height="40" as="geometry" />
        </mxCell>
        <mxCell id="Y_uL8YW0Y6g2B9xkBIYC-5" value="&lt;span style=&quot;font-size: 14px;&quot;&gt;分解用户任务&lt;/span&gt;" style="rounded=0;whiteSpace=wrap;html=1;fillColor=#FFFF99;" vertex="1" parent="1">
          <mxGeometry x="140" y="520" width="110" height="50" as="geometry" />
        </mxCell>
        <mxCell id="Y_uL8YW0Y6g2B9xkBIYC-6" value="&lt;span style=&quot;font-size: 14px;&quot;&gt;选择适用工具&lt;/span&gt;" style="rounded=0;whiteSpace=wrap;html=1;fillColor=#FFFF99;" vertex="1" parent="1">
          <mxGeometry x="320" y="520" width="110" height="50" as="geometry" />
        </mxCell>
        <mxCell id="Y_uL8YW0Y6g2B9xkBIYC-7" value="&lt;span style=&quot;font-size: 14px;&quot;&gt;生成执行计划&lt;/span&gt;" style="rounded=0;whiteSpace=wrap;html=1;fillColor=#FFFF99;" vertex="1" parent="1">
          <mxGeometry x="480" y="520" width="110" height="50" as="geometry" />
        </mxCell>
        <mxCell id="Y_uL8YW0Y6g2B9xkBIYC-33" style="edgeStyle=orthogonalEdgeStyle;rounded=0;orthogonalLoop=1;jettySize=auto;html=1;entryX=0.5;entryY=0;entryDx=0;entryDy=0;curved=1;exitX=0.5;exitY=1;exitDx=0;exitDy=0;" edge="1" parent="1" source="Y_uL8YW0Y6g2B9xkBIYC-8" target="Y_uL8YW0Y6g2B9xkBIYC-9">
          <mxGeometry relative="1" as="geometry" />
        </mxCell>
        <mxCell id="Y_uL8YW0Y6g2B9xkBIYC-34" style="edgeStyle=orthogonalEdgeStyle;rounded=0;orthogonalLoop=1;jettySize=auto;html=1;curved=1;exitX=0.5;exitY=1;exitDx=0;exitDy=0;" edge="1" parent="1" source="Y_uL8YW0Y6g2B9xkBIYC-8" target="Y_uL8YW0Y6g2B9xkBIYC-15">
          <mxGeometry relative="1" as="geometry" />
        </mxCell>
        <mxCell id="Y_uL8YW0Y6g2B9xkBIYC-8" value="&lt;span style=&quot;font-size: 14px;&quot;&gt;act阶段&lt;/span&gt;" style="rounded=0;whiteSpace=wrap;html=1;fillColor=#FFFF99;" vertex="1" parent="1">
          <mxGeometry x="640" y="520" width="110" height="50" as="geometry" />
        </mxCell>
        <mxCell id="Y_uL8YW0Y6g2B9xkBIYC-21" style="edgeStyle=orthogonalEdgeStyle;rounded=0;orthogonalLoop=1;jettySize=auto;html=1;curved=1;exitX=0.5;exitY=1;exitDx=0;exitDy=0;" edge="1" parent="1" source="Y_uL8YW0Y6g2B9xkBIYC-9" target="Y_uL8YW0Y6g2B9xkBIYC-11">
          <mxGeometry relative="1" as="geometry" />
        </mxCell>
        <mxCell id="Y_uL8YW0Y6g2B9xkBIYC-22" style="edgeStyle=orthogonalEdgeStyle;rounded=0;orthogonalLoop=1;jettySize=auto;html=1;entryX=0.5;entryY=0;entryDx=0;entryDy=0;curved=1;exitX=0.5;exitY=1;exitDx=0;exitDy=0;" edge="1" parent="1" source="Y_uL8YW0Y6g2B9xkBIYC-9" target="Y_uL8YW0Y6g2B9xkBIYC-12">
          <mxGeometry relative="1" as="geometry" />
        </mxCell>
        <mxCell id="Y_uL8YW0Y6g2B9xkBIYC-25" style="edgeStyle=orthogonalEdgeStyle;rounded=0;orthogonalLoop=1;jettySize=auto;html=1;entryX=0.5;entryY=0;entryDx=0;entryDy=0;curved=1;exitX=0.5;exitY=1;exitDx=0;exitDy=0;" edge="1" parent="1" source="Y_uL8YW0Y6g2B9xkBIYC-9" target="Y_uL8YW0Y6g2B9xkBIYC-14">
          <mxGeometry relative="1" as="geometry">
            <mxPoint x="540" y="730" as="sourcePoint" />
          </mxGeometry>
        </mxCell>
        <mxCell id="Y_uL8YW0Y6g2B9xkBIYC-40" style="edgeStyle=orthogonalEdgeStyle;rounded=0;orthogonalLoop=1;jettySize=auto;html=1;curved=1;" edge="1" parent="1" source="Y_uL8YW0Y6g2B9xkBIYC-9" target="Y_uL8YW0Y6g2B9xkBIYC-13">
          <mxGeometry relative="1" as="geometry" />
        </mxCell>
        <mxCell id="Y_uL8YW0Y6g2B9xkBIYC-9" value="&lt;span style=&quot;font-size: 14px;&quot;&gt;调用选定工具&lt;/span&gt;" style="rounded=0;whiteSpace=wrap;html=1;" vertex="1" parent="1">
          <mxGeometry x="480" y="640" width="110" height="50" as="geometry" />
        </mxCell>
        <mxCell id="Y_uL8YW0Y6g2B9xkBIYC-10" value="PythonExcute" style="ellipse;whiteSpace=wrap;html=1;fillColor=#99FFCC;" vertex="1" parent="1">
          <mxGeometry x="30" y="800" width="120" height="80" as="geometry" />
        </mxCell>
        <mxCell id="Y_uL8YW0Y6g2B9xkBIYC-11" value="GoogleSearch" style="ellipse;whiteSpace=wrap;html=1;fillColor=#99FFCC;" vertex="1" parent="1">
          <mxGeometry x="200" y="800" width="120" height="80" as="geometry" />
        </mxCell>
        <mxCell id="Y_uL8YW0Y6g2B9xkBIYC-12" value="BrowserUserTool" style="ellipse;whiteSpace=wrap;html=1;fillColor=#99FFCC;" vertex="1" parent="1">
          <mxGeometry x="360" y="800" width="120" height="80" as="geometry" />
        </mxCell>
        <mxCell id="Y_uL8YW0Y6g2B9xkBIYC-13" value="FileSaver" style="ellipse;whiteSpace=wrap;html=1;fillColor=#99FFCC;" vertex="1" parent="1">
          <mxGeometry x="520" y="800" width="80" height="80" as="geometry" />
        </mxCell>
        <mxCell id="Y_uL8YW0Y6g2B9xkBIYC-14" value="Terminate" style="ellipse;whiteSpace=wrap;html=1;fillColor=#99FFCC;" vertex="1" parent="1">
          <mxGeometry x="640" y="800" width="80" height="80" as="geometry" />
        </mxCell>
        <mxCell id="Y_uL8YW0Y6g2B9xkBIYC-35" value="" style="edgeStyle=orthogonalEdgeStyle;rounded=0;orthogonalLoop=1;jettySize=auto;html=1;" edge="1" parent="1" source="Y_uL8YW0Y6g2B9xkBIYC-15" target="Y_uL8YW0Y6g2B9xkBIYC-16">
          <mxGeometry relative="1" as="geometry" />
        </mxCell>
        <mxCell id="Y_uL8YW0Y6g2B9xkBIYC-15" value="&lt;span style=&quot;font-size: 14px;&quot;&gt;处理工具输出&lt;/span&gt;" style="rounded=0;whiteSpace=wrap;html=1;" vertex="1" parent="1">
          <mxGeometry x="780" y="640" width="140" height="50" as="geometry" />
        </mxCell>
        <mxCell id="Y_uL8YW0Y6g2B9xkBIYC-36" value="" style="edgeStyle=orthogonalEdgeStyle;rounded=0;orthogonalLoop=1;jettySize=auto;html=1;" edge="1" parent="1" source="Y_uL8YW0Y6g2B9xkBIYC-16" target="Y_uL8YW0Y6g2B9xkBIYC-17">
          <mxGeometry relative="1" as="geometry" />
        </mxCell>
        <mxCell id="Y_uL8YW0Y6g2B9xkBIYC-16" value="&lt;span style=&quot;font-size: 14px;&quot;&gt;更新AgentState&lt;/span&gt;" style="rounded=0;whiteSpace=wrap;html=1;" vertex="1" parent="1">
          <mxGeometry x="780" y="729" width="140" height="50" as="geometry" />
        </mxCell>
        <mxCell id="Y_uL8YW0Y6g2B9xkBIYC-37" style="edgeStyle=orthogonalEdgeStyle;rounded=0;orthogonalLoop=1;jettySize=auto;html=1;entryX=0;entryY=0.5;entryDx=0;entryDy=0;" edge="1" parent="1" source="Y_uL8YW0Y6g2B9xkBIYC-17" target="Y_uL8YW0Y6g2B9xkBIYC-18">
          <mxGeometry relative="1" as="geometry" />
        </mxCell>
        <mxCell id="Y_uL8YW0Y6g2B9xkBIYC-17" value="&lt;span style=&quot;font-size: 14px;&quot;&gt;步骤计数器+1&lt;/span&gt;" style="rounded=0;whiteSpace=wrap;html=1;" vertex="1" parent="1">
          <mxGeometry x="780" y="839" width="140" height="50" as="geometry" />
        </mxCell>
        <mxCell id="Y_uL8YW0Y6g2B9xkBIYC-38" style="edgeStyle=orthogonalEdgeStyle;rounded=0;orthogonalLoop=1;jettySize=auto;html=1;entryX=1;entryY=0.5;entryDx=0;entryDy=0;" edge="1" parent="1" source="Y_uL8YW0Y6g2B9xkBIYC-18" target="Y_uL8YW0Y6g2B9xkBIYC-3">
          <mxGeometry relative="1" as="geometry">
            <Array as="points">
              <mxPoint x="1160" y="980" />
              <mxPoint x="1160" y="320" />
            </Array>
          </mxGeometry>
        </mxCell>
        <mxCell id="Y_uL8YW0Y6g2B9xkBIYC-41" value="&lt;font style=&quot;font-size: 18px;&quot;&gt;&lt;b&gt;否&lt;/b&gt;&lt;/font&gt;" style="edgeLabel;html=1;align=center;verticalAlign=middle;resizable=0;points=[];" vertex="1" connectable="0" parent="Y_uL8YW0Y6g2B9xkBIYC-38">
          <mxGeometry x="-0.5711" y="3" relative="1" as="geometry">
            <mxPoint as="offset" />
          </mxGeometry>
        </mxCell>
        <mxCell id="Y_uL8YW0Y6g2B9xkBIYC-39" value="&lt;b style=&quot;forced-color-adjust: none; color: rgb(0, 0, 0); font-family: Helvetica; font-size: 18px; font-style: normal; font-variant-ligatures: normal; font-variant-caps: normal; letter-spacing: normal; orphans: 2; text-align: center; text-indent: 0px; text-transform: none; widows: 2; word-spacing: 0px; -webkit-text-stroke-width: 0px; white-space: nowrap; background-color: rgb(255, 255, 255); text-decoration-thickness: initial; text-decoration-style: initial; text-decoration-color: initial;&quot;&gt;是&lt;/b&gt;" style="edgeStyle=orthogonalEdgeStyle;rounded=0;orthogonalLoop=1;jettySize=auto;html=1;" edge="1" parent="1" source="Y_uL8YW0Y6g2B9xkBIYC-18" target="Y_uL8YW0Y6g2B9xkBIYC-19">
          <mxGeometry relative="1" as="geometry">
            <mxPoint as="offset" />
          </mxGeometry>
        </mxCell>
        <mxCell id="Y_uL8YW0Y6g2B9xkBIYC-18" value="终止条件是否满足" style="rhombus;whiteSpace=wrap;html=1;" vertex="1" parent="1">
          <mxGeometry x="900" y="929" width="120" height="120" as="geometry" />
        </mxCell>
        <mxCell id="Y_uL8YW0Y6g2B9xkBIYC-19" value="&lt;span style=&quot;font-size: 14px;&quot;&gt;输出最终结果&lt;/span&gt;" style="rounded=0;whiteSpace=wrap;html=1;" vertex="1" parent="1">
          <mxGeometry x="890" y="1119" width="140" height="50" as="geometry" />
        </mxCell>
        <mxCell id="Y_uL8YW0Y6g2B9xkBIYC-20" style="edgeStyle=orthogonalEdgeStyle;rounded=0;orthogonalLoop=1;jettySize=auto;html=1;entryX=0.583;entryY=0;entryDx=0;entryDy=0;entryPerimeter=0;curved=1;exitX=0.5;exitY=1;exitDx=0;exitDy=0;" edge="1" parent="1" source="Y_uL8YW0Y6g2B9xkBIYC-9" target="Y_uL8YW0Y6g2B9xkBIYC-10">
          <mxGeometry relative="1" as="geometry" />
        </mxCell>
        <mxCell id="Y_uL8YW0Y6g2B9xkBIYC-28" style="edgeStyle=orthogonalEdgeStyle;rounded=0;orthogonalLoop=1;jettySize=auto;html=1;entryX=0.446;entryY=0.025;entryDx=0;entryDy=0;entryPerimeter=0;exitX=0.5;exitY=1;exitDx=0;exitDy=0;" edge="1" parent="1" source="Y_uL8YW0Y6g2B9xkBIYC-3" target="Y_uL8YW0Y6g2B9xkBIYC-4">
          <mxGeometry relative="1" as="geometry" />
        </mxCell>
      </root>
    </mxGraphModel>
  </diagram>
</mxfile>
